<svg xmlns="http://www.w3.org/2000/svg" viewBox="0 0 1190 755" width="1190" height="755" font-family="'Apple SD Gothic Neo','Pretendard','Malgun Gothic',system-ui,sans-serif"><style>.nt{font-size:14px;font-weight:600;fill:#12161F;text-anchor:middle;dominant-baseline:central}.ns{font-size:11px;fill:#4F586B;text-anchor:middle;dominant-baseline:central}.ed{fill:none;stroke-width:1.6}.grp{fill:#F7F8FB;stroke:#B7BECC;stroke-width:1.2}.grpt{font-size:12.5px;font-weight:700;fill:#8A92A5}.k-src rect{fill:#EEF0F4;stroke:#A9B1C0;stroke-width:1.4}.k-src-sch rect{fill:#E1F1E7;stroke:#4E9A6F;stroke-width:1.4}.k-src-app rect{fill:#E4EBFA;stroke:#6F8AC7;stroke-width:1.4}.k-src-urg rect{fill:#F9E3E2;stroke:#C0504F;stroke-width:1.4}.k-q rect{fill:#FBF0DA;stroke:#C49A4A;stroke-width:1.4}.k-fn rect{fill:#FBE7DC;stroke:#CF7B4E;stroke-width:1.4}.k-ext rect{fill:#DFF0F2;stroke:#4B98A6;stroke-width:1.4}.k-db rect{fill:#ECE6F6;stroke:#8A71B6;stroke-width:1.4}.k-dev rect{fill:#FFFFFF;stroke:#8E96A8;stroke-width:1.4}@media (prefers-color-scheme: dark){.nt{fill:#E7EAF1}.ns{fill:#A3AABB}.grp{fill:#171C26;stroke:#3A4254}.grpt{fill:#6C7486}.k-src rect{fill:#1A1F2A;stroke:#4A5366}.k-src-sch rect{fill:#122A1C;stroke:#4E9A6F}.k-src-app rect{fill:#172440;stroke:#5877BD}.k-src-urg rect{fill:#321717;stroke:#D96A68}.k-q rect{fill:#2E2412;stroke:#B08840}.k-fn rect{fill:#33200F;stroke:#C27446}.k-ext rect{fill:#10292E;stroke:#4491A0}.k-db rect{fill:#231C33;stroke:#8A71B6}.k-dev rect{fill:#12161E;stroke:#6C7486}}</style><defs><marker id="ah0" viewBox="0 0 10 10" refX="9" refY="5" markerWidth="8" markerHeight="8" orient="auto-start-reverse"><path d="M0,0L10,5L0,10z" fill="#8A92A5"/></marker><marker id="ah1" viewBox="0 0 10 10" refX="9" refY="5" markerWidth="8" markerHeight="8" orient="auto-start-reverse"><path d="M0,0L10,5L0,10z" fill="#8A92A5"/></marker><marker id="ah2" viewBox="0 0 10 10" refX="9" refY="5" markerWidth="8" markerHeight="8" orient="auto-start-reverse"><path d="M0,0L10,5L0,10z" fill="#4E9A6F"/></marker><marker id="ah3" viewBox="0 0 10 10" refX="9" refY="5" markerWidth="8" markerHeight="8" orient="auto-start-reverse"><path d="M0,0L10,5L0,10z" fill="#C0504F"/></marker><marker id="ah4" viewBox="0 0 10 10" refX="9" refY="5" markerWidth="8" markerHeight="8" orient="auto-start-reverse"><path d="M0,0L10,5L0,10z" fill="#5E7FC4"/></marker><marker id="ah5" viewBox="0 0 10 10" refX="9" refY="5" markerWidth="8" markerHeight="8" orient="auto-start-reverse"><path d="M0,0L10,5L0,10z" fill="#C0504F"/></marker><marker id="ah6" viewBox="0 0 10 10" refX="9" refY="5" markerWidth="8" markerHeight="8" orient="auto-start-reverse"><path d="M0,0L10,5L0,10z" fill="#C0504F"/></marker><marker id="ah7" viewBox="0 0 10 10" refX="9" refY="5" markerWidth="8" markerHeight="8" orient="auto-start-reverse"><path d="M0,0L10,5L0,10z" fill="#C0504F"/></marker><marker id="ah8" viewBox="0 0 10 10" refX="9" refY="5" markerWidth="8" markerHeight="8" orient="auto-start-reverse"><path d="M0,0L10,5L0,10z" fill="#5E7FC4"/></marker><marker id="ah9" viewBox="0 0 10 10" refX="9" refY="5" markerWidth="8" markerHeight="8" orient="auto-start-reverse"><path d="M0,0L10,5L0,10z" fill="#5E7FC4"/></marker><marker id="ah10" viewBox="0 0 10 10" refX="9" refY="5" markerWidth="8" markerHeight="8" orient="auto-start-reverse"><path d="M0,0L10,5L0,10z" fill="#5E7FC4"/></marker><marker id="ah11" viewBox="0 0 10 10" refX="9" refY="5" markerWidth="8" markerHeight="8" orient="auto-start-reverse"><path d="M0,0L10,5L0,10z" fill="#5E7FC4"/></marker><marker id="ah12" viewBox="0 0 10 10" refX="9" refY="5" markerWidth="8" markerHeight="8" orient="auto-start-reverse"><path d="M0,0L10,5L0,10z" fill="#C08C35"/></marker><marker id="ah13" viewBox="0 0 10 10" refX="9" refY="5" markerWidth="8" markerHeight="8" orient="auto-start-reverse"><path d="M0,0L10,5L0,10z" fill="#C08C35"/></marker><marker id="ah14" viewBox="0 0 10 10" refX="9" refY="5" markerWidth="8" markerHeight="8" orient="auto-start-reverse"><path d="M0,0L10,5L0,10z" fill="#C08C35"/></marker><marker id="ah15" viewBox="0 0 10 10" refX="9" refY="5" markerWidth="8" markerHeight="8" orient="auto-start-reverse"><path d="M0,0L10,5L0,10z" fill="#C08C35"/></marker><marker id="ah16" viewBox="0 0 10 10" refX="9" refY="5" markerWidth="8" markerHeight="8" orient="auto-start-reverse"><path d="M0,0L10,5L0,10z" fill="#C08C35"/></marker><marker id="ah17" viewBox="0 0 10 10" refX="9" refY="5" markerWidth="8" markerHeight="8" orient="auto-start-reverse"><path d="M0,0L10,5L0,10z" fill="#C08C35"/></marker><marker id="ah18" viewBox="0 0 10 10" refX="9" refY="5" markerWidth="8" markerHeight="8" orient="auto-start-reverse"><path d="M0,0L10,5L0,10z" fill="#C08C35"/></marker><marker id="ah19" viewBox="0 0 10 10" refX="9" refY="5" markerWidth="8" markerHeight="8" orient="auto-start-reverse"><path d="M0,0L10,5L0,10z" fill="#CF7B4E"/></marker><marker id="ah20" viewBox="0 0 10 10" refX="9" refY="5" markerWidth="8" markerHeight="8" orient="auto-start-reverse"><path d="M0,0L10,5L0,10z" fill="#CF7B4E"/></marker><marker id="ah21" viewBox="0 0 10 10" refX="9" refY="5" markerWidth="8" markerHeight="8" orient="auto-start-reverse"><path d="M0,0L10,5L0,10z" fill="#CF7B4E"/></marker><marker id="ah22" viewBox="0 0 10 10" refX="9" refY="5" markerWidth="8" markerHeight="8" orient="auto-start-reverse"><path d="M0,0L10,5L0,10z" fill="#CF7B4E"/></marker><marker id="ah23" viewBox="0 0 10 10" refX="9" refY="5" markerWidth="8" markerHeight="8" orient="auto-start-reverse"><path d="M0,0L10,5L0,10z" fill="#CF7B4E"/></marker><marker id="ah24" viewBox="0 0 10 10" refX="9" refY="5" markerWidth="8" markerHeight="8" orient="auto-start-reverse"><path d="M0,0L10,5L0,10z" fill="#CF7B4E"/></marker></defs><rect class="grp" x="240" y="100" width="210" height="240" rx="12"/><text class="grpt" x="254" y="124">알림 서버</text><path class="ed" stroke="#8A92A5" marker-end="url(#ah0)" d="M180.0,175.0 C212.8,175.0 220.2,170.0 253.0,170.0"/><path class="ed" stroke="#8A92A5" marker-end="url(#ah1)" d="M180.0,189.0 C212.8,189.0 220.2,263.0 253.0,263.0"/><path class="ed" stroke="#4E9A6F" marker-end="url(#ah2)" d="M180.0,462.0 C212.8,462.0 220.2,277.0 253.0,277.0"/><path class="ed" stroke="#C0504F" marker-end="url(#ah3)" d="M315.0,200.0 C315.0,296.5 315.0,296.5 315.0,393.0"/><path class="ed" stroke="#5E7FC4" marker-end="url(#ah4)" d="M375.0,300.0 C375.0,346.5 375.0,346.5 375.0,393.0"/><path class="ed" stroke="#C0504F" marker-end="url(#ah5)" d="M430.0,156.0 C471.9,156.0 481.1,50.0 523.0,50.0"/><path class="ed" stroke="#C0504F" marker-end="url(#ah6)" d="M430.0,170.0 C471.9,170.0 481.1,380.0 523.0,380.0"/><path class="ed" stroke="#C0504F" marker-end="url(#ah7)" d="M430.0,184.0 C471.9,184.0 481.1,560.0 523.0,560.0"/><path class="ed" stroke="#5E7FC4" marker-end="url(#ah8)" d="M430.0,249.0 C471.9,249.0 481.1,128.0 523.0,128.0"/><path class="ed" stroke="#5E7FC4" marker-end="url(#ah9)" d="M430.0,263.0 C471.9,263.0 481.1,206.0 523.0,206.0"/><path class="ed" stroke="#5E7FC4" marker-end="url(#ah10)" d="M430.0,277.0 C471.9,277.0 481.1,284.0 523.0,284.0"/><path class="ed" stroke="#5E7FC4" marker-end="url(#ah11)" d="M430.0,291.0 C471.9,291.0 481.1,638.0 523.0,638.0"/><path class="ed" stroke="#C08C35" marker-end="url(#ah12)" d="M730.0,50.0 C767.4,50.0 775.6,129.0 813.0,129.0"/><path class="ed" stroke="#C08C35" marker-end="url(#ah13)" d="M730.0,128.0 C767.4,128.0 775.6,143.0 813.0,143.0"/><path class="ed" stroke="#C08C35" marker-end="url(#ah14)" d="M730.0,206.0 C767.4,206.0 775.6,157.0 813.0,157.0"/><path class="ed" stroke="#C08C35" marker-end="url(#ah15)" d="M730.0,284.0 C767.4,284.0 775.6,171.0 813.0,171.0"/><path class="ed" stroke="#C08C35" marker-end="url(#ah16)" d="M730.0,380.0 C767.4,380.0 775.6,380.0 813.0,380.0"/><path class="ed" stroke="#C08C35" marker-end="url(#ah17)" d="M730.0,560.0 C767.4,560.0 775.6,583.0 813.0,583.0"/><path class="ed" stroke="#C08C35" marker-end="url(#ah18)" d="M730.0,638.0 C767.4,638.0 775.6,597.0 813.0,597.0"/><path class="ed" stroke="#CF7B4E" marker-start="url(#ah19)" marker-end="url(#ah19)" d="M905.0,197.0 C905.0,223.5 905.0,216.5 905.0,243.0"/><path class="ed" stroke="#CF7B4E" marker-start="url(#ah20)" marker-end="url(#ah20)" d="M905.0,417.0 C905.0,443.5 905.0,436.5 905.0,463.0"/><path class="ed" stroke="#CF7B4E" marker-start="url(#ah21)" marker-end="url(#ah21)" d="M905.0,627.0 C905.0,653.5 905.0,646.5 905.0,673.0"/><path class="ed" stroke="#CF7B4E" marker-end="url(#ah22)" d="M990.0,150.0 C1020.0,150.0 1023.0,150.0 1053.0,150.0"/><path class="ed" stroke="#CF7B4E" marker-end="url(#ah23)" d="M990.0,380.0 C1020.0,380.0 1023.0,380.0 1053.0,380.0"/><path class="ed" stroke="#CF7B4E" marker-end="url(#ah24)" d="M990.0,590.0 C1020.0,590.0 1023.0,590.0 1053.0,590.0"/><g class="k-src"><rect x="20" y="150" width="160" height="64" rx="8"/><text class="nt" x="100.0" y="183.0">API 서버</text></g><g class="k-src-sch"><rect x="20" y="430" width="160" height="64" rx="8"/><text class="nt" x="100.0" y="463.0">스케줄링 서버</text></g><g class="k-src-urg"><rect x="260" y="140" width="170" height="60" rx="8"/><text class="nt" x="345.0" y="171.0">긴급 풀</text></g><g class="k-src-app"><rect x="260" y="240" width="170" height="60" rx="8"/><text class="nt" x="345.0" y="271.0">일반 풀</text></g><g class="k-db"><rect x="240" y="400" width="210" height="58" rx="8"/><text class="nt" x="345.0" y="430.0">캐시, DB</text></g><g class="k-q"><rect x="530" y="20" width="200" height="60" rx="8"/><text class="nt" x="630.0" y="51.0">1 푸시 큐</text></g><g class="k-q"><rect x="530" y="98" width="200" height="60" rx="8"/><text class="nt" x="630.0" y="129.0">2 상호작용 큐</text></g><g class="k-q"><rect x="530" y="176" width="200" height="60" rx="8"/><text class="nt" x="630.0" y="207.0">3 예약 큐</text></g><g class="k-q"><rect x="530" y="254" width="200" height="60" rx="8"/><text class="nt" x="630.0" y="285.0">4 대량 푸시 큐</text></g><g class="k-q"><rect x="530" y="350" width="200" height="60" rx="8"/><text class="nt" x="630.0" y="381.0">1 인증 SMS 큐</text></g><g class="k-q"><rect x="530" y="530" width="200" height="60" rx="8"/><text class="nt" x="630.0" y="561.0">1 인증 이메일 큐</text></g><g class="k-q"><rect x="530" y="608" width="200" height="60" rx="8"/><text class="nt" x="630.0" y="639.0">4 대량 이메일 큐</text></g><g class="k-fn"><rect x="820" y="110" width="170" height="80" rx="8"/><text class="nt" x="905.0" y="141.0">푸시 작업 서버</text><text class="ns" x="905.0" y="161.0">폴링 우선순위 1 &gt; 2 &gt; 3 &gt; 4</text></g><g class="k-db"><rect x="820" y="250" width="170" height="50" rx="8"/><text class="nt" x="905.0" y="276.0">알림 로그</text></g><g class="k-fn"><rect x="820" y="350" width="170" height="60" rx="8"/><text class="nt" x="905.0" y="381.0">SMS 작업 서버</text></g><g class="k-db"><rect x="820" y="470" width="170" height="50" rx="8"/><text class="nt" x="905.0" y="496.0">알림 로그</text></g><g class="k-fn"><rect x="820" y="560" width="170" height="60" rx="8"/><text class="nt" x="905.0" y="591.0">이메일 작업 서버</text></g><g class="k-db"><rect x="820" y="680" width="170" height="50" rx="8"/><text class="nt" x="905.0" y="706.0">알림 로그</text></g><g class="k-ext"><rect x="1060" y="125" width="110" height="50" rx="8"/><text class="nt" x="1115.0" y="151.0">FCM</text></g><g class="k-ext"><rect x="1060" y="355" width="110" height="50" rx="8"/><text class="nt" x="1115.0" y="381.0">SMS</text></g><g class="k-ext"><rect x="1060" y="565" width="110" height="50" rx="8"/><text class="nt" x="1115.0" y="591.0">email</text></g></svg>
